name processed_emg_signals
nRows=57
nColumns=7
 
endheader
time	RGLTMED	RRF	RADDLONG	RST	RTA	RGM
0.442	0.1746997706695806	0.1677699988499565	0.2988600038807695	0.4627678192012738	0.5429662081741159	0.1002961880976394
0.443	0.1738424865685338	0.1675173382874417	0.2996366892748309	0.4764254699930036	0.5425054127102289	0.100437157743842
0.444	0.1729763580102778	0.1672892444410782	0.3005063285668293	0.4901246704563753	0.5421365738851155	0.100586230749269
0.445	0.172102957737166	0.167087378501834	0.3014688841805013	0.5038551490694796	0.5418615018206716	0.1007433355115919
0.446	0.1712239259305439	0.1669134435326432	0.3025241785453489	0.5176064770624066	0.5416819117453926	0.1009083888445045
0.447	0.1703409699693094	0.1667691837741825	0.303671893482879	0.5313680799266132	0.5415994204202986	0.1010812958764183
0.448	0.1694558641071195	0.1666563838378045	0.3049115698312631	0.5451292492650305	0.5416155428376142	0.1012619499727179
0.449	0.1685704490660051	0.1665768677820287	0.306242607312263	0.5588791549614089	0.5417316891993936	0.1014502326826047
0.45	0.1676866315443679	0.1665324980689382	0.3076642646431298	0.5726068576463524	0.5419491621815296	0.1016460137115143
0.451	0.1668063836378617	0.1665251743975584	0.3091756598958486	0.5863013214365769	0.5422691544869798	0.1018491509201482
0.452	0.1659317421716542	0.1665568324120721	0.3107757711050102	0.5999514269233072	0.5426927466905599	0.1020594903510455
0.453	0.1650648079432395	0.1666294422831198	0.312463437125618	0.613545984385288	0.5432209053760059	0.1022768662837678
0.454	0.1642077448747201	0.1667450071617669	0.3142373587409806	0.6270737472019025	0.5438544815646454	0.1025011013196418
0.455	0.1633627790738476	0.1669055615065334	0.3160961000206583	0.6405234254423475	0.5445942094335113	0.102732006497288
0.456	0.1625321978034082	0.1671131692842977	0.318038089927787	0.6538836996075421	0.5454407053194102	0.1029693814398889
0.457	0.1617183483588683	0.1673699220466212	0.3200616241742187	0.6671432345023295	0.5463944670042528	0.1032130145352455
0.458	0.1609236368544382	0.1676779368828565	0.3221648673208867	0.6802906932168931	0.5474558732756781	0.1034626831493343
0.459	0.1601505269185431	0.168039354251778	0.3243458551204793	0.6933147511977525	0.548625183755843	0.1037181538739883
0.46	0.1594015382991861	0.1684563356934045	0.3266024970979026	0.7062041103899864	0.5499025389902972	0.1039791828089706
0.461	0.1586792453806922	0.1689310614230078	0.3289325793638925	0.718947513433023	0.551287960788227	0.1042455158785679
0.462	0.1579862756124874	0.1694657278092002	0.3313337676558419	0.7315337578925233	0.5527813528047866	0.1045168891827527
0.463	0.1573253078512419	0.1700625447385793	0.333803610598982	0.7439517105108221	0.5543825013560478	0.1047930293827855
0.464	0.1566990706170235	0.1707237328693443	0.336339543180671	0.7561903214580115	0.5560910764570332	0.1050736541211411
0.465	0.1561103402641289	0.1714515207768401	0.3389388904298244	0.7682386385658186	0.5579066330744047	0.1053584724755696
0.466	0.155561939067083	0.1722481419939822	0.3415988712933893	0.7800858215268931	0.559828612586866	0.1056471854469145
0.467	0.1550567332217714	0.1731158319502407	0.3443166027017601	0.7917211560434863	0.5618563444480562	0.1059394864803014
0.468	0.1545976307619213	0.1740568248129667	0.3470891038148208	0.8031340679113177	0.56398904804747	0.1062350620190054
0.46900000000000003	0.1541875793903349	0.1750733502353472	0.3499133004397725	0.8143141370268946	0.566225834764744	0.1065335920901028
0.47000000000000003	0.1538295642248327	0.1761676300155685	0.3527860296120343	0.8252511113089332	0.5685657102114251	0.1068347509209588
0.47100000000000003	0.1535266054582184	0.1773418746719077	0.3557040443308346	0.8359349205266698	0.5710075766528528	0.1071382075853154
0.47200000000000003	0.1532817559320946	0.1785982799387072	0.3586640184412487	0.8463556900290872	0.5735502356012818	0.1074436266775525
0.47300000000000003	0.1530980986244129	0.1799390231884609	0.3616625516553929	0.856503754369127	0.5761923905700753	0.1077506690136976
0.47400000000000003	0.1529787440507266	0.1813662597858207	0.3646961747060452	0.86636967081588	0.5789326499771053	0.108058992357394
0.47500000000000003	0.1529268275794431	0.1828821193800232	0.3677613546255074	0.8759442327461038	0.5817695301841292	0.1083682521691572
0.47600000000000003	0.1529455066611178	0.1844887021423223	0.3708545001427865	0.8852184829041948	0.5847014586571256	0.1086781023770376
0.47700000000000004	0.15303795797229	0.1861880749558548	0.3739719671917039	0.8941837265174087	0.5877267772310849	0.1089881961668837
0.47800000000000004	0.1532073744739641	0.1879822675652687	0.3771100645227023	0.9028315442510854	0.5908437454611029	0.1092981867904632
0.47900000000000004	0.1534569623856088	0.1898732686942597	0.3802650594119881	0.911153804987087	0.5940505440399289	0.1096077283897919
0.48	0.1537899380751285	0.1918630221391315	0.3834331834617073	0.9191426784078724	0.5973452782609089	0.1099164768360763
0.481	0.1542095248656461	0.1939534228473672	0.3866106384857653	0.926790647367714	0.6007259815040575	0.1102240905816128
0.482	0.1547189497597552	0.1961463129895371	0.3897936024755183	0.9340905200315308	0.6041906187221971	0.1105302315230147
0.483	0.1553214400816009	0.1984434780335756	0.3929782356395192	0.941035441759984	0.6077370899033645	0.1108345658739561
0.484	0.1560202200368446	0.2008466428294848	0.3961606865108096	0.9476189067175989	0.611363233484952	0.1111367650457835
0.485	0.1568185071904359	0.2033574677123378	0.3993370981141745	0.953834769179218	0.6150668296949275	0.1114365065343553
0.486	0.1577195088619288	0.2059775446308845	0.4025036141854523	0.9596772545093184	0.6188456037957241	0.1117334748115636
0.487	0.1587264184378524	0.208708393308681	0.4056563854335328	0.9651409697881445	0.6226972292079851	0.1120273622200363
0.488	0.1598424116007977	0.2115514574444277	0.4087915758360194	0.9702209140585064	0.6266193304937713	0.1123178698692583
0.489	0.1610706424747739	0.2145081009580472	0.41190536895823	0.9749124881667038	0.630609486182131	0.1126047085312922
0.49	0.1624142396860502	0.2175796042893758	0.414993974285452	0.979211504170807	0.6346652314237097	0.1128875995340811
0.491	0.1638763023388989	0.2207671607556359	0.4180536335576117	0.9831141942895328	0.6387840604646153	0.113166275650217
0.492	0.1654598959055288	0.2240718729744397	0.4210806270948283	0.9866172193649804	0.6429634289331955	0.1134404819790361
0.493	0.1671680480301036	0.2274947493582262	0.4240712801014989	0.9897176768124128	0.6472007559360797	0.1137099768200614
0.494	0.1690037442478205	0.2310367006864404	0.4270219689351002	0.992413108030074	0.6514934259618314	0.1139745325359535
0.495	0.1709699236209483	0.2346985367611664	0.4299291273249827	0.9947015052411864	0.6558387905915269	0.1142339364033018
0.496	0.1730694742946165	0.2384809631523916	0.4327892525248408	0.9965813177394398	0.6602341700156419	0.114487991449873
0.497	0.1753052289754616	0.2423845780389682	0.435598911382352	0.9980514575082348	0.6646768543564973	0.1147365172769718
0.498	0.1776799603367609	0.2464098691512167	0.4383547463085494	0.9991113041834344	0.6691641047954578	0.1149793508656526
